<svg width="148" height="72" viewBox="0 0 148 72" fill="none" xmlns="http://www.w3.org/2000/svg">
<path d="M10.9773 56.321V71.2528H2.64209V36.3438H10.7046V49.8778H10.9944C11.5853 48.2642 12.5512 47.0028 13.8921 46.0938C15.2444 45.1847 16.8978 44.7301 18.8523 44.7301C20.6932 44.7301 22.2955 45.1392 23.6591 45.9574C25.0228 46.7642 26.0796 47.9063 26.8296 49.3835C27.591 50.8608 27.966 52.5881 27.9546 54.5653V71.2528H19.6194V56.2017C19.6307 54.7472 19.2671 53.6108 18.5285 52.7926C17.7898 51.9744 16.75 51.5653 15.4091 51.5653C14.5341 51.5653 13.7614 51.7585 13.091 52.1449C12.4319 52.5199 11.9148 53.0597 11.5398 53.7642C11.1762 54.4688 10.9887 55.321 10.9773 56.321Z" fill="white"/>
<path d="M40.5384 71.696C38.8679 71.696 37.385 71.4176 36.0895 70.8608C34.8054 70.2926 33.7884 69.4403 33.0384 68.304C32.2998 67.1563 31.9304 65.7188 31.9304 63.9915C31.9304 62.5369 32.1861 61.3097 32.6975 60.3097C33.2089 59.3097 33.9134 58.4972 34.8111 57.8722C35.7089 57.2472 36.7429 56.7756 37.9134 56.4574C39.0839 56.1278 40.3339 55.9063 41.6634 55.7926C43.152 55.6563 44.3509 55.5142 45.26 55.3665C46.1691 55.2074 46.8282 54.9858 47.2373 54.7017C47.6577 54.4063 47.8679 53.9915 47.8679 53.4574V53.3722C47.8679 52.4972 47.5668 51.821 46.9645 51.3438C46.3623 50.8665 45.5498 50.6278 44.527 50.6278C43.4248 50.6278 42.5384 50.8665 41.8679 51.3438C41.1975 51.821 40.7714 52.4801 40.5895 53.321L32.902 53.0483C33.1293 51.4574 33.7145 50.0369 34.6577 48.7869C35.6123 47.5256 36.9191 46.5369 38.5782 45.821C40.2486 45.0938 42.2543 44.7301 44.5952 44.7301C46.2657 44.7301 47.8054 44.929 49.2145 45.3267C50.6236 45.7131 51.8509 46.2813 52.8964 47.0313C53.9418 47.7699 54.7486 48.679 55.3168 49.7585C55.8964 50.8381 56.1861 52.071 56.1861 53.4574V71.2528H48.3452V67.6051H48.1407C47.6748 68.4915 47.0782 69.2415 46.3509 69.8551C45.635 70.4688 44.7884 70.929 43.8111 71.2358C42.8452 71.5426 41.7543 71.696 40.5384 71.696ZM43.1123 66.2415C44.01 66.2415 44.8168 66.0597 45.5327 65.696C46.26 65.3324 46.8395 64.8324 47.2714 64.196C47.7032 63.5483 47.9191 62.7983 47.9191 61.946V59.4574C47.6804 59.5824 47.3907 59.696 47.0498 59.7983C46.7202 59.9006 46.3566 59.9972 45.9589 60.0881C45.5611 60.179 45.152 60.2585 44.7316 60.3267C44.3111 60.3949 43.9077 60.4574 43.5214 60.5142C42.7373 60.6392 42.0668 60.8324 41.51 61.0938C40.9645 61.3551 40.5441 61.696 40.2486 62.1165C39.9645 62.5256 39.8225 63.0142 39.8225 63.5824C39.8225 64.446 40.1293 65.1051 40.7429 65.5597C41.3679 66.0142 42.1577 66.2415 43.1123 66.2415Z" fill="white"/>
<path d="M61.2827 71.2528V36.3438H69.6179V49.554H69.7884C70.1293 48.7585 70.6123 47.9915 71.2373 47.2528C71.8736 46.5142 72.6804 45.9119 73.6577 45.446C74.6463 44.9688 75.8282 44.7301 77.2032 44.7301C79.0214 44.7301 80.7202 45.2074 82.2998 46.1619C83.8907 47.1165 85.1748 48.5881 86.152 50.5767C87.1293 52.5653 87.6179 55.0994 87.6179 58.179C87.6179 61.1449 87.1464 63.6278 86.2032 65.6278C85.2714 67.6278 84.01 69.1278 82.4191 70.1278C80.8395 71.1278 79.0838 71.6278 77.152 71.6278C75.8338 71.6278 74.6918 71.4119 73.7259 70.9801C72.76 70.5483 71.9475 69.9801 71.2884 69.2756C70.6407 68.571 70.1407 67.8153 69.7884 67.0085H69.5327V71.2528H61.2827ZM69.4475 58.1619C69.4475 59.571 69.635 60.7983 70.01 61.8438C70.3963 62.8892 70.9475 63.7017 71.6634 64.2813C72.3907 64.8494 73.26 65.1335 74.2714 65.1335C75.2941 65.1335 76.1634 64.8494 76.8793 64.2813C77.5952 63.7017 78.135 62.8892 78.4986 61.8438C78.8736 60.7983 79.0611 59.571 79.0611 58.1619C79.0611 56.7528 78.8736 55.5313 78.4986 54.4972C78.135 53.4631 77.5952 52.6619 76.8793 52.0938C76.1748 51.5256 75.3054 51.2415 74.2714 51.2415C73.2486 51.2415 72.3793 51.5199 71.6634 52.0767C70.9475 52.6335 70.3963 53.429 70.01 54.4631C69.635 55.4972 69.4475 56.7301 69.4475 58.1619Z" fill="white"/>
<path d="M91.9858 71.2528V45.071H100.321V71.2528H91.9858ZM96.162 42.0199C94.9915 42.0199 93.9858 41.6335 93.1449 40.8608C92.304 40.0767 91.8836 39.1335 91.8836 38.0313C91.8836 36.9403 92.304 36.0085 93.1449 35.2358C93.9858 34.4517 94.9915 34.0597 96.162 34.0597C97.3438 34.0597 98.3495 34.4517 99.179 35.2358C100.02 36.0085 100.44 36.9403 100.44 38.0313C100.44 39.1335 100.02 40.0767 99.179 40.8608C98.3495 41.6335 97.3438 42.0199 96.162 42.0199Z" fill="white"/>
<path d="M120.405 45.071V51.2074H103.888V45.071H120.405ZM107.348 38.7983H115.683V63.0199C115.683 63.5313 115.763 63.946 115.922 64.2642C116.092 64.571 116.337 64.7926 116.655 64.929C116.973 65.054 117.354 65.1165 117.797 65.1165C118.115 65.1165 118.45 65.0881 118.803 65.0313C119.166 64.9631 119.439 64.9063 119.621 64.8608L120.882 70.8778C120.484 70.9915 119.922 71.1335 119.195 71.304C118.479 71.4744 117.621 71.5824 116.621 71.6278C114.666 71.7188 112.99 71.4915 111.592 70.946C110.206 70.3892 109.144 69.5256 108.405 68.3551C107.678 67.1847 107.325 65.7131 107.348 63.9403V38.7983Z" fill="white"/>
<path d="M147.188 53.0653L139.534 53.2699C139.455 52.7244 139.239 52.2415 138.886 51.821C138.534 51.3892 138.074 51.054 137.506 50.8153C136.949 50.5653 136.301 50.4403 135.563 50.4403C134.597 50.4403 133.773 50.6335 133.091 51.0199C132.421 51.4063 132.091 51.929 132.102 52.5881C132.091 53.0994 132.296 53.5426 132.716 53.9176C133.148 54.2926 133.915 54.5938 135.017 54.821L140.063 55.7756C142.676 56.2756 144.619 57.1051 145.892 58.2642C147.176 59.4233 147.824 60.9574 147.835 62.8665C147.824 64.6619 147.29 66.2244 146.233 67.554C145.188 68.8835 143.756 69.9176 141.938 70.6563C140.119 71.3835 138.04 71.7472 135.699 71.7472C131.96 71.7472 129.011 70.9801 126.852 69.446C124.705 67.9006 123.477 65.8324 123.171 63.2415L131.403 63.0369C131.585 63.9915 132.057 64.7188 132.818 65.2188C133.58 65.7188 134.551 65.9688 135.733 65.9688C136.801 65.9688 137.671 65.7699 138.341 65.3722C139.011 64.9744 139.352 64.446 139.364 63.7869C139.352 63.196 139.091 62.7244 138.58 62.3722C138.068 62.0085 137.267 61.7244 136.176 61.5199L131.608 60.6506C128.983 60.1733 127.028 59.2926 125.744 58.0085C124.46 56.7131 123.824 55.0653 123.835 53.0653C123.824 51.3153 124.29 49.821 125.233 48.5824C126.176 47.3324 127.517 46.3778 129.256 45.7188C130.994 45.0597 133.046 44.7301 135.409 44.7301C138.955 44.7301 141.75 45.4744 143.796 46.9631C145.841 48.4403 146.972 50.4744 147.188 53.0653Z" fill="white"/>
<rect x="0.5" y="0.752838" width="15" height="15" rx="3.5" fill="#18181B" stroke="#27272A"/>
<rect x="20.5" y="0.752838" width="15" height="15" rx="3.5" fill="#4C1D95" stroke="#6D28D9"/>
<rect x="40.5" y="0.752838" width="15" height="15" rx="3.5" fill="#5B21B6" stroke="#7C3AED"/>
<rect x="60.5" y="0.752838" width="15" height="15" rx="3.5" fill="#6D28D9" stroke="#8B5CF6"/>
<rect x="80.5" y="0.752838" width="15" height="15" rx="3.5" fill="#7C3AED" stroke="#A78BFA"/>
<rect x="100.5" y="0.752838" width="15" height="15" rx="3.5" fill="#8B5CF6" stroke="#C4B5FD"/>
</svg>

